# xmcd
#
# Track frame offsets:
#	150
#	18375
#	38938
#	67263
#	83725
#	102663
#	121025
#	139488
#	157300
#	174125
#	197363
#	215013
#
# Disc length: 3114 seconds
#
# Revision: 0
# Processed by: cddbd v1.5.2PL0 Copyright (c) Steve Scherf et al.
# Submitted via: EasyCDDAExtractor 15.2.5.1
#
DISCID=ac0c280c
DTITLE=Oscar Amous Songs - 奧斯卡名曲精選
DYEAR=1984
DGENRE=Alternative
TTITLE0=Say You Me
TTITLE1=I Will Always Love You
TTITLE2=I Just Call Yo Say I love You
TTITLE3=Unchained Melody 
TTITLE4=Take My Breath Away
TTITLE5=Beautyand And Beast
TTITLE6=Eye Of The Tiger
TTITLE7=What A Feeling 
TTITLE8=Lead Me On
TTITLE9=I Can Wait Fpreveer
TTITLE10=Pretty Women
TTITLE11=Heaven In Your Eyes
EXTD=
EXTT0=
EXTT1=
EXTT2=
EXTT3=
EXTT4=
EXTT5=
EXTT6=
EXTT7=
EXTT8=
EXTT9=
EXTT10=
EXTT11=
PLAYORDER=
